<svg id="Capa_1" enable-background="new 0 0 512 512" height="512" viewBox="0 0 512 512" width="512" xmlns="http://www.w3.org/2000/svg"><g id="XMLID_2479_"><g id="XMLID_1258_"><path id="XMLID_1265_" d="m502 356h-70v-132.999c0-5.523-4.477-10-10-10s-10 4.477-10 10v238.999c0 11.247 3.735 21.637 10.027 30h-292.027c-16.542 0-30-13.458-30-30v-412c0-11.247-3.735-21.637-10.027-30h292.027c16.542 0 30 13.458 30 30v83.001c0 5.523 4.477 10 10 10s10-4.477 10-10v-83.001c0-27.57-22.43-50-50-50h-332c-27.57 0-50 22.43-50 50v96c0 5.523 4.477 10 10 10h70v306c0 27.57 22.43 50 50 50h332c27.57 0 50-22.43 50-50v-96c0-5.523-4.477-10-10-10zm-482-306c0-16.542 13.458-30 30-30s30 13.458 30 30v86h-60zm472 412c0 16.542-13.458 30-30 30s-30-13.458-30-30v-86h60z"/><path id="XMLID_1272_" d="m256 227.521c4.672 0 9.064-1.819 12.366-5.122l63.746-63.745c21.162-21.162 21.162-55.595 0-76.757-10.252-10.251-23.882-15.897-38.38-15.897-14.195 0-27.558 5.413-37.732 15.262-10.174-9.849-23.538-15.262-37.733-15.262-14.498 0-28.127 5.646-38.378 15.897s-15.897 23.881-15.897 38.379 5.646 28.127 15.897 38.379l63.745 63.745c3.303 3.303 7.694 5.121 12.366 5.121zm-72.009-107.245c0-9.155 3.565-17.763 10.04-24.237 6.473-6.474 15.081-10.039 24.236-10.039s17.763 3.565 24.237 10.04l6.425 6.425c3.905 3.905 10.237 3.904 14.142 0l6.425-6.425c13.363-13.364 35.109-13.364 48.473 0s13.364 35.109 0 48.473l-61.969 61.968-61.969-61.969c-6.474-6.473-10.04-15.081-10.04-24.236z"/><path id="XMLID_1274_" d="m155.238 334h103.762c5.523 0 10-4.477 10-10s-4.477-10-10-10h-103.762c-5.523 0-10 4.477-10 10s4.477 10 10 10z"/><path id="XMLID_1275_" d="m145.239 268.001c0 5.523 4.477 10 10 10h36.761c5.523 0 10-4.477 10-10s-4.477-10-10-10h-36.761c-5.523 0-10 4.477-10 10z"/><path id="XMLID_1276_" d="m356.761 370h-201.523c-5.523 0-10 4.477-10 10s4.477 10 10 10h201.523c5.523 0 10-4.477 10-10s-4.477-10-10-10z"/><path id="XMLID_1278_" d="m155.238 426c-5.523 0-10 4.477-10 10s4.477 10 10 10h104.762c5.523 0 10-4.477 10-10s-4.477-10-10-10z"/><path id="XMLID_1283_" d="m356.762 258.001h-104.762c-5.523 0-10 4.477-10 10s4.477 10 10 10h104.762c5.523 0 10-4.477 10-10s-4.477-10-10-10z"/><path id="XMLID_1284_" d="m356.761 314h-37.761c-5.523 0-10 4.477-10 10s4.477 10 10 10h37.761c5.523 0 10-4.477 10-10s-4.477-10-10-10z"/><path id="XMLID_1288_" d="m356.761 426h-36.761c-5.523 0-10 4.477-10 10s4.477 10 10 10h36.761c5.523 0 10-4.477 10-10s-4.477-10-10-10z"/><path id="XMLID_1289_" d="m422 168c-2.63 0-5.21 1.07-7.07 2.93s-2.93 4.44-2.93 7.07 1.07 5.21 2.93 7.07 4.44 2.93 7.07 2.93 5.21-1.07 7.07-2.93 2.93-4.44 2.93-7.07-1.07-5.21-2.93-7.07-4.44-2.93-7.07-2.93z"/></g></g></svg>