<svg id="Capa_1" enable-background="new 0 0 512 512" height="512" viewBox="0 0 512 512" width="512" xmlns="http://www.w3.org/2000/svg"><g><path d="m60 308.5c0 4.142 3.358 7.5 7.5 7.5h272c4.143 0 7.5-3.358 7.5-7.5v-45c0-4.142-3.357-7.5-7.5-7.5h-272c-4.142 0-7.5 3.358-7.5 7.5zm15-37.5h257v30h-257z"/><path d="m444.5 316c4.143 0 7.5-3.358 7.5-7.5v-45c0-4.142-3.357-7.5-7.5-7.5h-75c-4.143 0-7.5 3.358-7.5 7.5v45c0 4.142 3.357 7.5 7.5 7.5zm-67.5-45h60v30h-60z"/><path d="m67.5 241h188.5c4.143 0 7.5-3.358 7.5-7.5s-3.357-7.5-7.5-7.5h-188.5c-4.142 0-7.5 3.358-7.5 7.5s3.358 7.5 7.5 7.5z"/><path d="m474.5 76h-437c-20.678 0-37.5 16.822-37.5 37.5v90c0 4.142 3.358 7.5 7.5 7.5h489.5v187.5c0 12.407-10.094 22.5-22.5 22.5h-437c-12.407 0-22.5-10.093-22.5-22.5v-165c0-4.142-3.358-7.5-7.5-7.5s-7.5 3.358-7.5 7.5v165c0 20.678 16.822 37.5 37.5 37.5h437c20.678 0 37.5-16.822 37.5-37.5v-285c0-20.678-16.822-37.5-37.5-37.5zm-437 15h437c12.406 0 22.5 10.093 22.5 22.5v22.5h-482v-22.5c0-12.407 10.093-22.5 22.5-22.5zm-22.5 105v-45h482v45z"/></g></svg>