<svg width="273" height="220" viewBox="0 0 273 220" fill="none" class="not-found-icon"><path d="M241.66 62.7593C229.89 39.2204 202.195 -3.55472 130.422 1.29944C58.6485 6.1536 23.6264 58.7833 13.9942 112.044C7.74169 146.617 40.442 183.368 86.4164 190.724C132.391 198.079 194.899 177.433 232.063 141.439C248.238 125.774 253.429 86.2982 241.66 62.7593Z" fill="#E5EAF6"></path><mask id="mask0" mask-type="alpha" maskUnits="userSpaceOnUse" x="13" y="4" width="236" height="189"><path d="M241.66 62.7593C229.89 39.2204 198.096 0.36565 126.102 5.23481C54.1079 10.104 23.6264 58.7833 13.9942 112.044C7.74169 146.617 40.442 183.368 86.4164 190.724C132.391 198.079 194.899 177.433 232.063 141.439C248.238 125.774 253.429 86.2982 241.66 62.7593Z" fill="#E5EAF6"></path></mask><g mask="url(#mask0)"><path d="M98.3365 22.2933H129.95C129.95 22.2933 130.089 17.2907 126.685 17.2907C124.809 17.2907 123.35 18.3329 123.35 18.3329C123.35 18.3329 122.377 14.9283 118.764 14.3725C115.151 13.8166 114.178 15.2757 114.178 15.2757C114.178 15.2757 111.607 8.95296 106.605 9.30037C99.2397 9.78674 99.1703 17.5686 99.1703 17.5686C99.1703 17.5686 95.4183 18.1245 96.0436 22.3628H98.3365V22.2933Z" stroke="#CED9ED" stroke-width="0.964827" stroke-miterlimit="10"></path><path d="M144.78 16.8133C146.557 15.9938 147.581 14.4255 147.067 13.3104C146.553 12.1952 144.695 11.9555 142.918 12.775C141.141 13.5944 140.117 15.1627 140.631 16.2779C141.145 17.393 143.003 17.6327 144.78 16.8133Z" stroke="#CED9ED" stroke-width="0.964827" stroke-miterlimit="10"></path><path d="M8.28087 0.816176C-9.74225 -3.45423 -19.4469 16.8302 -22.0463 27.5061C-24.9346 46.0114 -26.8987 89.2139 -11.6485 113.982C7.41426 144.943 46.4066 180.174 82.7995 186.579C119.192 192.985 185.044 197.255 219.704 180.174C254.363 163.092 254.364 112.915 254.364 70.2105C254.364 36.0472 246.854 21.1007 243.1 17.8979C235.59 27.8622 215.892 47.7908 197.176 47.7908C173.781 47.7908 123.523 94.7654 116.592 63.8049C109.66 32.8443 99.2628 27.5061 82.7995 27.5061C66.3362 27.5061 62.8698 48.8584 46.4066 47.7908C29.9433 46.7232 30.8098 6.15419 8.28087 0.816176Z" fill="#CED9ED"></path></g><path d="M236.31 127.665C256.107 127.665 272.155 111.617 272.155 91.8199C272.155 72.0233 256.107 55.975 236.31 55.975C216.513 55.975 200.465 72.0233 200.465 91.8199C200.465 111.617 216.513 127.665 236.31 127.665Z" fill="#2F3D48"></path><path d="M235.229 124.498C255.025 124.498 271.074 108.45 271.074 88.6532C271.074 68.8566 255.025 52.8083 235.229 52.8083C215.432 52.8083 199.384 68.8566 199.384 88.6532C199.384 108.45 215.432 124.498 235.229 124.498Z" fill="#FF9165"></path><path d="M240.251 65.1675L252.766 68.0258L235.462 99.7764L227.968 96.9953L240.251 65.1675Z" fill="white"></path><path d="M227.427 112.446C229.901 112.446 231.907 110.44 231.907 107.966C231.907 105.491 229.901 103.485 227.427 103.485C224.952 103.485 222.946 105.491 222.946 107.966C222.946 110.44 224.952 112.446 227.427 112.446Z" fill="white"></path><path d="M97.0301 27.416L188.85 30.3457C188.85 30.3457 183.134 41.7071 182.062 47.8523C180.99 53.9974 168.2 90.0824 169.7 93.7267C171.129 97.3709 171.558 105.374 168.986 108.661C166.413 111.948 164.27 120.594 164.27 120.594L147.12 176.472C147.12 176.472 146.049 178.973 142.047 178.83C141.261 178.83 140.547 178.544 139.903 178.116C137.402 176.329 136.259 171.399 136.545 165.539C136.831 159.466 138.689 153.535 135.259 152.177L134.973 152.106L66.1614 125.453C76.8082 102.444 84.6683 87.3671 91.5281 57.2844C92.8857 50.9963 95.9583 33.3468 97.0301 27.416Z" fill="#FFDC50"></path><path d="M139.906 178.044L120.184 171.47C120.47 169.97 120.827 168.612 121.256 167.254C124.186 158.537 125.615 152.677 132.546 151.82C133.547 151.677 134.404 151.749 135.047 151.963L135.333 152.034C138.691 153.392 136.905 159.394 136.619 165.397C136.262 171.327 137.334 176.258 139.906 178.044Z" fill="#FFC74F"></path><path d="M66.1627 125.381L134.974 152.034C134.331 151.82 133.474 151.82 132.473 151.891C125.542 152.749 124.113 158.608 121.183 167.326C120.755 168.683 120.397 170.041 120.112 171.542C118.54 179.83 118.611 190.12 111.037 199.409C102.176 210.342 88.2425 216.201 88.2425 216.201L17.7874 183.975C38.8667 178.115 44.9405 128.74 52.9435 125.81C60.9465 122.88 66.1627 125.381 66.1627 125.381Z" fill="#FEE889"></path><path d="M124.899 40.8496C122.541 46.6375 120.898 52.2825 119.612 58.7849C112.18 58.7135 104.82 58.642 97.389 58.4991C99.89 58.4991 100.819 40.7782 103.677 40.0636C108.75 38.8489 120.112 40.7067 124.899 40.8496Z" stroke="#FFF3C0" stroke-width="0.714555" stroke-miterlimit="10"></path><path d="M174.276 44.3508C171.061 49.9244 169.06 56.7841 166.773 62.8578C153.697 61.7145 138.406 62.2862 125.544 59.7852C125.544 54.9263 128.831 47.7807 131.689 41.7784C143.55 44.2794 162.2 42.9932 174.276 44.3508Z" stroke="#FFF3C0" stroke-width="0.714555" stroke-miterlimit="10"></path><path d="M117.326 66.9308C114.968 72.7187 113.325 78.3637 112.039 84.8662C104.607 84.7947 97.2472 84.7232 89.8159 84.5803C92.3168 84.5803 93.2457 66.8594 96.104 66.1448C101.177 64.9301 112.539 66.7879 117.326 66.9308Z" stroke="#FFEDA1" stroke-width="0.714555" stroke-miterlimit="10"></path><path d="M166.699 70.4321C163.484 76.0056 161.483 82.8653 159.197 88.939C146.12 87.7957 130.829 88.3674 117.967 85.8664C117.967 81.0075 121.254 73.8619 124.112 67.8596C135.974 70.3606 154.623 69.0744 166.699 70.4321Z" stroke="#FFF3C0" stroke-width="0.714555" stroke-miterlimit="10"></path><path opacity="0.4" d="M132.117 113.52C135.69 131.455 118.541 149.962 93.8885 154.893C69.1649 159.823 46.2991 149.248 42.7263 131.312C39.1536 113.377 57.5891 98.3713 82.3127 93.4409C106.965 88.5105 128.544 95.5846 132.117 113.52Z" fill="#FFF7D7"></path><path d="M143.335 112.948C139.262 89.5823 123.899 76.363 84.5271 84.4375C54.7302 90.5827 29.1491 113.091 33.1506 136.457C37.2236 159.823 66.306 167.183 96.3173 161.967C126.4 156.75 147.408 136.314 143.335 112.948ZM92.2443 154.107C68.1638 157.179 45.2266 150.462 42.8686 132.098C40.5105 113.734 61.6614 96.9422 85.6704 93.0836C117.325 88.0103 129.044 98.8715 131.473 117.236C133.903 135.6 116.325 150.963 92.2443 154.107Z" fill="#4D525B"></path><path d="M72.3095 163.324L57.0895 215.344C57.8041 216.13 59.9477 218.417 63.6634 219.274C67.0218 220.06 69.7371 219.131 70.7375 218.774C75.525 200.267 80.3126 181.831 85.1001 163.324" fill="#4D525B"></path></svg>